<svg width="20" height="21" viewBox="0 0 20 21" fill="none" xmlns="http://www.w3.org/2000/svg">
<path fill-rule="evenodd" clip-rule="evenodd" d="M1.12637 0C0.391272 0 -0.146622 0.693046 0.0357879 1.40515L2.21227 9.90188C2.33986 10.4 2.78869 10.7483 3.30285 10.7483H8.33915C8.52558 10.7483 8.67672 10.8995 8.67672 11.0859V19.6259C8.67672 20.6288 9.88936 21.1311 10.5986 20.4219L19.4618 11.5586C19.7433 11.2771 19.9015 10.8953 19.9015 10.4972V2.53081C19.9015 1.53956 18.713 1.03213 17.9971 1.71769L9.24226 10.1009C9.05572 10.2795 8.74586 10.191 8.68177 9.94084L6.35219 0.846435C6.22461 0.348353 5.77577 0 5.26161 0H1.12637Z" fill="#4353FE"/>
</svg>
