<svg width="151" height="42" viewBox="0 0 151 42" fill="none" xmlns="http://www.w3.org/2000/svg">
<path fill-rule="evenodd" clip-rule="evenodd" d="M2.0398 8.12549C1.12778 8.12549 0.460423 8.98534 0.686735 9.86883L3.38706 20.4106C3.54535 21.0285 4.10221 21.4607 4.74012 21.4607H10.9885C11.2199 21.4607 11.4074 21.6482 11.4074 21.8795V32.4749C11.4074 33.7193 12.9119 34.3425 13.7918 33.4626L24.7882 22.466C25.1375 22.1168 25.3337 21.6431 25.3337 21.1492V11.2654C25.3337 10.0356 23.8592 9.40603 22.9709 10.2566L12.109 20.6575C11.8776 20.8791 11.4932 20.7693 11.4136 20.4589L8.52338 9.17564C8.36508 8.55768 7.80822 8.12549 7.17031 8.12549H2.0398Z" fill="#4353FE"/>
<path d="M39.7682 29L35.755 13.4434H37.8293L41.2337 27.1963H42.4286L45.8556 13.4434H47.9072L43.9392 29H39.7682ZM55.8655 29.2255C54.2422 29.2255 52.9797 28.9324 52.0778 28.3462C51.176 27.745 50.5447 26.8582 50.184 25.6858C49.8233 24.4984 49.6429 23.0329 49.6429 21.2893C49.6429 19.5608 49.8233 18.0954 50.184 16.8929C50.5598 15.6905 51.1985 14.7736 52.1004 14.1423C53.0022 13.511 54.2573 13.1954 55.8655 13.1954C57.4888 13.1954 58.7514 13.511 59.6532 14.1423C60.555 14.7586 61.1863 15.6754 61.5471 16.8929C61.9228 18.0954 62.1107 19.5608 62.1107 21.2893C62.1107 23.078 61.9303 24.5585 61.5696 25.7309C61.2089 26.9032 60.5701 27.7825 59.6532 28.3687C58.7514 28.9399 57.4888 29.2255 55.8655 29.2255ZM55.8655 27.4894C57.0229 27.4894 57.9022 27.2715 58.5034 26.8356C59.1046 26.3847 59.5104 25.7008 59.7209 24.7839C59.9463 23.8671 60.059 22.7022 60.059 21.2893C60.059 19.9366 59.9463 18.7868 59.7209 17.8398C59.4954 16.8929 59.0821 16.1714 58.4808 15.6754C57.8796 15.1794 57.0078 14.9314 55.8655 14.9314C54.7232 14.9314 53.8514 15.1794 53.2502 15.6754C52.664 16.1714 52.2582 16.8929 52.0327 17.8398C51.8073 18.7717 51.6946 19.9216 51.6946 21.2893C51.6946 22.6571 51.7998 23.7994 52.0102 24.7163C52.2357 25.6332 52.6415 26.3246 53.2277 26.7905C53.8289 27.2565 54.7082 27.4894 55.8655 27.4894ZM63.7145 29L68.4265 21.4021L63.7145 13.4434H65.9239L69.6665 19.914L73.4768 13.4434H75.5961L70.884 21.2893L75.5735 29H73.364L69.644 22.7323L65.8338 29H63.7145ZM79.6672 29L76.601 13.4434H78.6526L81.1552 27.2189H81.7865L84.8302 13.5561H87.1298L90.1735 27.2189H90.8048L93.3074 13.4434H95.359L92.2703 29H88.7982L85.8222 15.2245H86.1153L83.1392 29H79.6672ZM103.423 29.2255C101.8 29.2255 100.537 28.9324 99.6353 28.3462C98.7335 27.745 98.1022 26.8582 97.7415 25.6858C97.3808 24.4984 97.2004 23.0329 97.2004 21.2893C97.2004 19.5608 97.3808 18.0954 97.7415 16.8929C98.1173 15.6905 98.7561 14.7736 99.6579 14.1423C100.56 13.511 101.815 13.1954 103.423 13.1954C105.046 13.1954 106.309 13.511 107.211 14.1423C108.113 14.7586 108.744 15.6754 109.105 16.8929C109.48 18.0954 109.668 19.5608 109.668 21.2893C109.668 23.078 109.488 24.5585 109.127 25.7309C108.766 26.9032 108.128 27.7825 107.211 28.3687C106.309 28.9399 105.046 29.2255 103.423 29.2255ZM103.423 27.4894C104.58 27.4894 105.46 27.2715 106.061 26.8356C106.662 26.3847 107.068 25.7008 107.278 24.7839C107.504 23.8671 107.617 22.7022 107.617 21.2893C107.617 19.9366 107.504 18.7868 107.278 17.8398C107.053 16.8929 106.64 16.1714 106.038 15.6754C105.437 15.1794 104.565 14.9314 103.423 14.9314C102.281 14.9314 101.409 15.1794 100.808 15.6754C100.222 16.1714 99.8157 16.8929 99.5903 17.8398C99.3648 18.7717 99.2521 19.9216 99.2521 21.2893C99.2521 22.6571 99.3573 23.7994 99.5677 24.7163C99.7932 25.6332 100.199 26.3246 100.785 26.7905C101.386 27.2565 102.266 27.4894 103.423 27.4894ZM112.715 29V13.4434H118.532C119.659 13.4434 120.598 13.6087 121.35 13.9394C122.101 14.2701 122.665 14.7886 123.041 15.4951C123.432 16.2015 123.627 17.1109 123.627 18.2231C123.627 19.3654 123.402 20.3274 122.951 21.109C122.5 21.8755 121.801 22.4241 120.854 22.7548L123.74 29H121.575L118.915 23.1832H114.699V29H112.715ZM114.699 21.4697H118.577C119.313 21.4697 119.899 21.3344 120.335 21.0639C120.786 20.7783 121.102 20.395 121.282 19.914C121.478 19.418 121.575 18.8619 121.575 18.2457C121.575 17.2086 121.327 16.4345 120.831 15.9234C120.335 15.4124 119.569 15.1569 118.532 15.1569H114.699V21.4697ZM126.608 29V13.4434H128.592V27.2414H135.311V29H126.608ZM137.396 29V13.4434H143.01C144.168 13.4434 145.122 13.6313 145.874 14.0071C146.64 14.3678 147.241 14.8788 147.677 15.5402C148.128 16.2015 148.444 16.9981 148.624 17.93C148.82 18.8469 148.917 19.869 148.917 20.9962C148.917 22.1235 148.827 23.1757 148.647 24.1527C148.466 25.1146 148.151 25.9638 147.7 26.7003C147.264 27.4218 146.663 27.9854 145.896 28.3913C145.145 28.7971 144.19 29 143.033 29H137.396ZM139.38 27.264H143.01C143.807 27.264 144.453 27.0986 144.949 26.768C145.445 26.4223 145.828 25.9563 146.099 25.3701C146.385 24.7839 146.58 24.1226 146.685 23.3861C146.805 22.6346 146.866 21.838 146.866 20.9962C146.866 20.1696 146.805 19.403 146.685 18.6966C146.58 17.9901 146.385 17.3739 146.099 16.8478C145.828 16.3218 145.438 15.9159 144.927 15.6303C144.431 15.3297 143.792 15.1794 143.01 15.1794H139.38V27.264Z" fill="white"/>
</svg>
