<svg width="32" height="32" viewBox="0 0 32 32" fill="none" xmlns="http://www.w3.org/2000/svg">
<path d="M8.43385 17.0432H11.9416V31.4839C11.9416 31.769 12.1726 32 12.4577 32H18.4052C18.6903 32 18.9213 31.769 18.9213 31.4839V17.1112H22.9537C23.2159 17.1112 23.4365 16.9145 23.4664 16.654L24.0789 11.3377C24.0957 11.1914 24.0493 11.045 23.9515 10.9352C23.8535 10.8254 23.7133 10.7625 23.5662 10.7625H18.9215V7.42999C18.9215 6.42539 19.4624 5.91597 20.5293 5.91597C20.6814 5.91597 23.5662 5.91597 23.5662 5.91597C23.8514 5.91597 24.0824 5.68485 24.0824 5.39985V0.519948C24.0824 0.234839 23.8514 0.00381935 23.5662 0.00381935H19.381C19.3514 0.00237419 19.2859 0 19.1893 0C18.4631 0 15.9389 0.142555 13.945 1.97688C11.7357 4.0096 12.0428 6.44346 12.1162 6.86545V10.7624H8.43385C8.14874 10.7624 7.91772 10.9934 7.91772 11.2786V16.527C7.91772 16.8121 8.14874 17.0432 8.43385 17.0432Z" fill="#1877F2"/>
</svg>
