<svg width="32" height="32" viewBox="0 0 32 32" fill="none" xmlns="http://www.w3.org/2000/svg">
<g clip-path="url(#clip0_921_20602)">
<path fill-rule="evenodd" clip-rule="evenodd" d="M11.4291 10.2857H17.7522V13.5274H17.8437C18.7242 11.9476 20.8774 10.2857 24.0883 10.2857C30.7652 10.2857 32 14.4409 32 19.8463V30.8573H25.4058V21.0965C25.4058 18.7697 25.3574 15.7744 21.977 15.7744C18.5435 15.7744 18.0173 18.3073 18.0173 20.927V30.8573H11.4291V10.2857H11.4291ZM6.8576 4.5715C6.8576 6.46425 5.32155 8.0003 3.4288 8.0003C1.53605 8.0003 -0.000549316 6.46425 -0.000549316 4.5715C-0.000549316 2.67875 1.53605 1.1427 3.4288 1.1427C5.32155 1.1427 6.8576 2.67875 6.8576 4.5715ZM-0.000549316 10.2857H6.8576V30.8573H-0.000549316V10.2857Z" fill="#0077B5"/>
</g>
<defs>
<clipPath id="clip0_921_20602">
<rect width="32" height="32" fill="white"/>
</clipPath>
</defs>
</svg>
