<svg width="32" height="32" viewBox="0 0 32 32" fill="none" xmlns="http://www.w3.org/2000/svg">
<g clip-path="url(#clip0_921_20584)">
<path d="M31.2746 5.92392C30.7719 6.14688 30.2551 6.33507 29.727 6.48784C30.3522 5.78074 30.8289 4.94874 31.1199 4.03829C31.1851 3.83421 31.1175 3.61083 30.9498 3.47736C30.7822 3.34379 30.5495 3.32779 30.365 3.4371C29.2434 4.10229 28.0334 4.58033 26.7647 4.85987C25.4866 3.61104 23.7508 2.90033 21.9563 2.90033C18.1684 2.90033 15.0867 5.98193 15.0867 9.7697C15.0867 10.068 15.1056 10.3647 15.143 10.6572C10.4426 10.2445 6.07276 7.93424 3.07198 4.25331C2.96504 4.12211 2.80029 4.0514 2.63162 4.06492C2.46285 4.07814 2.31121 4.17331 2.22595 4.31958C1.61733 5.36392 1.29557 6.55834 1.29557 7.77362C1.29557 9.42885 1.88654 10.9993 2.93046 12.2265C2.61304 12.1165 2.30502 11.9791 2.01103 11.8159C1.8532 11.7281 1.66058 11.7294 1.50378 11.8193C1.34687 11.9093 1.2485 12.0746 1.24437 12.2554C1.24365 12.2858 1.24365 12.3163 1.24365 12.3471C1.24365 14.8179 2.5734 17.0423 4.60644 18.2547C4.43178 18.2372 4.25722 18.2119 4.0838 18.1788C3.90502 18.1446 3.72117 18.2073 3.6006 18.3436C3.47983 18.4799 3.43988 18.6698 3.49552 18.8432C4.24804 21.1927 6.18548 22.9208 8.52767 23.4476C6.58507 24.6644 4.36355 25.3017 2.03147 25.3017C1.54486 25.3017 1.05547 25.2731 0.5765 25.2164C0.338565 25.1881 0.111055 25.3286 0.0300229 25.5549C-0.0510093 25.7813 0.0348745 26.0336 0.2373 26.1634C3.23322 28.0843 6.69738 29.0997 10.2551 29.0997C17.249 29.0997 21.6242 25.8016 24.063 23.0348C27.104 19.5849 28.8481 15.0185 28.8481 10.5066C28.8481 10.3181 28.8452 10.1278 28.8394 9.93806C30.0392 9.03411 31.0722 7.94012 31.9128 6.68273C32.0404 6.49176 32.0266 6.23938 31.8787 6.06358C31.731 5.88768 31.4848 5.83081 31.2746 5.92392Z" fill="#1DA1F2"/>
</g>
<defs>
<clipPath id="clip0_921_20584">
<rect width="32" height="32" fill="white"/>
</clipPath>
</defs>
</svg>
