<svg width="24" height="24" viewBox="0 0 24 24" fill="none" xmlns="http://www.w3.org/2000/svg">
<path d="M12.1601 10.8705C12.0601 10.8605 11.9401 10.8605 11.8301 10.8705C9.45006 10.7905 7.56006 8.84049 7.56006 6.44049C7.56006 3.99049 9.54006 2.00049 12.0001 2.00049C14.4501 2.00049 16.4401 3.99049 16.4401 6.44049C16.4301 8.84049 14.5401 10.7905 12.1601 10.8705Z" stroke="currentcolor" stroke-width="1.25" stroke-linecap="round" stroke-linejoin="round"/>
<path d="M7.16021 14.5595C4.74021 16.1795 4.74021 18.8195 7.16021 20.4295C9.91021 22.2695 14.4202 22.2695 17.1702 20.4295C19.5902 18.8095 19.5902 16.1695 17.1702 14.5595C14.4302 12.7295 9.92021 12.7295 7.16021 14.5595Z" stroke="currentcolor" stroke-width="1.25" stroke-linecap="round" stroke-linejoin="round"/>
</svg>
